<svg xmlns="http://www.w3.org/2000/svg" viewBox="0 0 24 24">
  <defs>
    <linearGradient id="discordGradient" x1="0%" y1="0%" x2="100%" y2="100%">
      <stop offset="0%" style="stop-color:#34D399;stop-opacity:1" />
      <stop offset="100%" style="stop-color:#3B82F6;stop-opacity:1" />
    </linearGradient>
  </defs>
  <path
    d="M20.317 4.3698a19.7913 19.7913 0 00-4.8851-1.5152.0741.0741 0 00-.0785.0371c-.211.3753-.4447.8648-.6083 1.2495-1.8447-.2762-3.68-.2762-5.4868 0-.1636-.385-.3984-.8745-.6083-1.2495a.077.077 0 00-.0785-.037 19.7363 19.7363 0 00-4.8851 1.515.0699.0699 0 00-.032.0277C.5334 9.0458-.319 13.579 1.036 18.1178a.0829.0829 0 00.0312.0569c2.1644 1.4989 4.2674 2.4018 6.3437 2.7768.0087.0026.0174.0026.0261 0 .206-.0938.4024-.2634.5614-.4637a.0771.0771 0 00-.0112-.0793c-.449-.9072-.8984-1.8548-1.2979-2.8045-.0112-.0261-.0236-.0496-.037-.0722.4988.1515.9932.2708 1.4827.373a.0728.0728 0 00.0746-.0174c3.9276-1.8055 7.3792-2.2653 11.6787-.8946a.0702.0702 0 00.0708-.0156c.4894-.1023.9838-.2216 1.4827-.373-.0137.0226-.0259.0461-.037.0722-.3994.9497-.8488 1.8973-1.2979 2.8045a.076.076 0 00-.0112.0793c.159.2003.3554.3699.5614.4637.0087.0026.0174.0026.0261 0 2.0763-.375 4.1793-1.2779 6.3437-2.7768a.0834.0834 0 00.0312-.0569c1.5297-4.8973.4686-9.8682-2.708-14.2887a.0708.0708 0 00-.032-.0277zM8.02 15.3312c-1.1825 0-2.1568-1.0857-2.1568-2.419 0-1.3332.9555-2.4189 2.1568-2.4189 1.2013 0 2.1568 1.0857 2.1568 2.4189 0 1.3333-.9555 2.419-2.1568 2.419zm7.9742 0c-1.1825 0-2.1568-1.0857-2.1568-2.419 0-1.3332.9555-2.4189 2.1568-2.4189 1.2013 0 2.1568 1.0857 2.1568 2.4189 0 1.3333-.9555 2.419-2.1568 2.419z"
    fill="url(#discordGradient)"
  />
</svg>