<svg xmlns="http://www.w3.org/2000/svg" viewBox="0 0 24 24">
  <defs>
    <linearGradient id="hashGradient" x1="0%" y1="0%" x2="100%" y2="100%">
      <stop offset="0%" style="stop-color:#34D399;stop-opacity:1" />
      <stop offset="100%" style="stop-color:#3B82F6;stop-opacity:1" />
    </linearGradient>
  </defs>
  <path
    d="M19.5 15.5c0 2.48-2.02 4.5-4.5 4.5s-4.5-2.02-4.5-4.5 2.02-4.5 4.5-4.5 4.5 2.02 4.5 4.5zm-3.5 0c0-.83-.67-1.5-1.5-1.5s-1.5.67-1.5 1.5.67 1.5 1.5 1.5 1.5-.67 1.5-1.5zm-2-11.5h-2v2h2v-2zm0 4h-2v2h2v-2zm0 4h-2v2h2v-2zm0 4h-2v2h2v-2zm-4-12h-2v2h2v-2zm0 4h-2v2h2v-2zm0 4h-2v2h2v-2zm0 4h-2v2h2v-2z"
    fill="url(#hashGradient)"
  />
</svg>