<svg xmlns="http://www.w3.org/2000/svg" viewBox="0 0 24 24">
  <defs>
    <linearGradient id="signatureGradient" x1="0%" y1="0%" x2="100%" y2="100%">
      <stop offset="0%" style="stop-color:#34D399;stop-opacity:1" />
      <stop offset="100%" style="stop-color:#3B82F6;stop-opacity:1" />
    </linearGradient>
  </defs>
  <path
    d="M12.1 15.8c-.7-.4-1.4-.8-2.1-1.2-.3-.2-.6-.3-.9-.4-.3-.1-.6-.1-.9-.1-.7 0-1.3.3-1.7.8-.4.5-.6 1.2-.5 2 .1.7.5 1.3 1.1 1.7.6.4 1.3.5 2 .3.7-.2 1.3-.6 1.8-1.1.5-.5.9-1.1 1.2-1.8l.7-2.2zm9.7-2.1c-.2-.6-.6-1.1-1.1-1.4-.5-.3-1.1-.4-1.7-.3-.6.1-1.2.4-1.6.9-.4.5-.7 1.1-.8 1.8l-.2 1.7c0 .3.1.6.3.8.2.2.5.3.8.3.3 0 .6-.1.8-.3.2-.2.3-.5.3-.8l.2-1.7c.1-.5.4-.9.8-1.2.4-.3.9-.4 1.4-.3.5.1.9.4 1.2.8.3.4.4.9.3 1.4-.1.5-.4.9-.8 1.2-.4.3-.9.4-1.4.3-.3 0-.6-.1-.8-.3-.2-.2-.3-.5-.3-.8l-.2-1.7c0-.3-.1-.6-.3-.8-.2-.2-.5-.3-.8-.3-.3 0-.6.1-.8.3-.2.2-.3.5-.3.8l.2 1.7c.1.5.4.9.8 1.2.4.3.9.4 1.4.3.5-.1.9-.4 1.2-.8.3-.4.4-.9.3-1.4zM3 5c0-.6.4-1 1-1h16c.6 0 1 .4 1 1s-.4 1-1 1H4c-.6 0-1-.4-1-1zm2.5 5.5c0-.3.2-.5.5-.5h11c.3 0 .5.2.5.5s-.2.5-.5.5h-11c-.3 0-.5-.2-.5-.5z"
    fill="url(#signatureGradient)"
  />
</svg>